# xmcd
#
# Track frame offsets:
#	150
#	16344
#	33885
#	53486
#	66872
#	81020
#	100300
#	111930
#	124858
#	136006
#	148982
#	158942
#	176073
#	191752
#
# Disc length: 2751 seconds
# Revision: 2
# Processed by: cddbd v1.5.2PL0 Copyright (c) Steve Scherf et al.
# Submitted via: dBpowerAMP V12.0
#
DISCID=bf0abd0e
DTITLE=Various Artist - CMAA Winners 2011
DYEAR=2011
DGENRE=Country
TTITLE0=Lee Kernaghan - Planet Country
TTITLE1=Adam Harvey and The McClymonts - Both Sides Now
TTITLE2=Graham Rodger - The Cooper Coming Down
TTITLE3=Brendan Radford - Pronto Tonto
TTITLE4=Kasey Chambers ft. Kevin Bennett - Love Like a Hurricane
TTITLE5=Jonah's Road - End of The World
TTITLE6=Anne Kirkpatrick and Bill Chambers - Here We Are
TTITLE7=The Bostocks - Not By a long Shot
TTITLE8=Steve Passfield - Badl Bounce
TTITLE9=Michael Fix - Optymistical
TTITLE10=Ian Simpson and John Kane - Dixie Breakdown
TTITLE11=Ian Quinn - Say G'day For Me
TTITLE12=Tom Maxwell - Kings Without a Crown
TTITLE13=Luke Austen - Every Time He Travels Through Cloncurry
EXTD=
EXTT0=
EXTT1=
EXTT2=
EXTT3=
EXTT4=
EXTT5=
EXTT6=
EXTT7=
EXTT8=
EXTT9=
EXTT10=
EXTT11=
EXTT12=
EXTT13=
PLAYORDER=
